/* XPM */
static char *_b401a54bdf04e57ea9d79eb15196974[] = {
/* columns rows colors chars-per-pixel */
"24 24 16 1 ",
"  c #A51010",
". c #943110",
"X c #C60000",
"o c #D60000",
"O c #F70000",
"+ c #A55221",
"@ c #B56331",
"# c #A55263",
"$ c #F75252",
"% c #F77373",
"& c #C68452",
"* c #D69463",
"= c #E7A573",
"- c #142BFF",
"; c #C68484",
": c None",
/* pixels */
"::::::::::::::::::::::::",
"::::::::::::::::::::::::",
"::::::::::::::::::::::::",
"::::::::::::::::::::::::",
"::::------------------::",
"::::-::::::::::::::::-::",
"::::-::::::::::::::::-::",
"&XXX-XX:XXXXXXXXXXX::-::",
"XOOO-O% OOOOOOOO% OX:-::",
"XOOO-O% XXXXXXO$$ XX:-::",
" OOO-O$ ooooooooo OX:-::",
" ooo-oo          XOX:-::",
" ooo-oo =**;oX; OOXX:-::",
" ooo-oo ===@+X# OOXX:-::",
"#   -  &=====+.;.XX::-::",
"::::-:: *======+==@::-::",
"::::-:::+&*===**+@:::-::",
"::::-:::::++++*+:::::-::",
"::::-::::::::++::::::-::",
"::::-::::::::::::::::-::",
"::::------------------::",
"::::::::::::::::::::::::",
"::::::::::::::::::::::::",
"::::::::::::::::::::::::"
};
